<?xml version="1.0" standalone="no"?>
<!DOCTYPE svg PUBLIC "-//W3C//DTD SVG 20010904//EN"
 "http://www.w3.org/TR/2001/REC-SVG-20010904/DTD/svg10.dtd">
<svg version="1.0" xmlns="http://www.w3.org/2000/svg"
 width="522.000000pt" height="512.000000pt" viewBox="0 0 522.000000 512.000000"
 preserveAspectRatio="xMidYMid meet">

<g transform="translate(0.000000,512.000000) scale(0.100000,-0.100000)"
fill="#000000" stroke="none">
<path d="M2330 5071 c-88 -8 -138 -33 -163 -83 -10 -18 -30 -111 -46 -206 -15
-95 -30 -174 -33 -177 -2 -2 -48 -16 -102 -30 -179 -47 -394 -138 -556 -237
l-55 -34 -153 110 c-140 100 -159 110 -206 114 -45 3 -57 0 -101 -30 -67 -44
-296 -273 -334 -334 -23 -36 -31 -60 -31 -94 0 -53 13 -77 141 -251 l82 -113
-23 -41 c-121 -212 -197 -390 -248 -577 l-27 -103 -183 -31 c-190 -32 -214
-41 -255 -96 -50 -67 -49 -530 1 -597 40 -54 66 -64 254 -95 l183 -31 27 -103
c50 -184 138 -390 245 -572 l26 -45 -93 -129 c-125 -175 -130 -184 -130 -237
0 -33 8 -58 30 -92 38 -60 269 -292 335 -335 44 -30 56 -33 101 -30 47 4 66
14 206 114 l153 110 55 -34 c162 -99 377 -190 556 -237 54 -14 100 -28 102
-30 3 -3 18 -82 33 -177 16 -95 36 -188 46 -206 27 -52 70 -72 179 -83 112
-10 145 0 163 52 14 40 15 716 1 753 -15 40 -48 54 -154 66 -214 23 -405 79
-585 171 -453 232 -762 638 -873 1149 -19 91 -22 134 -22 320 0 186 3 229 22
320 50 228 149 457 275 637 34 48 116 142 182 208 282 283 628 444 1033 481
56 5 80 12 100 29 l27 23 3 359 c2 239 0 370 -8 395 -11 39 -51 69 -87 66 -10
0 -52 -4 -93 -7z"/>
<path d="M3182 4874 c-126 -63 -178 -211 -118 -339 23 -50 78 -107 122 -127
l24 -11 0 -279 c0 -181 -4 -286 -11 -300 -22 -41 -65 -48 -294 -48 l-215 0 0
-86 0 -86 253 4 c286 3 297 6 371 88 65 72 66 77 66 407 l1 298 52 30 c98 57
145 177 112 290 -44 154 -220 231 -363 159z"/>
<path d="M4055 4096 c-60 -28 -97 -66 -124 -126 -27 -59 -28 -159 -2 -215 19
-43 95 -119 130 -130 21 -6 21 -10 21 -246 l0 -241 -29 -29 -29 -29 -666 0
-666 0 0 -85 0 -86 693 3 c776 3 718 -2 797 79 64 66 70 98 70 380 l0 247 30
12 c43 18 100 77 123 129 42 94 16 221 -60 293 -73 69 -195 88 -288 44z"/>
<path d="M2365 3853 c-494 -62 -911 -394 -1074 -856 -100 -283 -100 -591 0
-874 167 -472 595 -807 1100 -858 61 -6 68 -5 95 18 l29 25 0 1252 0 1252 -28
24 c-28 24 -48 27 -122 17z"/>
<path d="M2690 3340 l0 -91 449 3 449 3 26 24 c26 24 34 68 20 106 -17 43 -40
45 -504 45 l-440 0 0 -90z"/>
<path d="M4790 2811 c-70 -23 -149 -90 -165 -140 l-6 -21 -965 0 -964 0 0 -90
0 -90 964 0 965 0 6 -21 c11 -33 74 -98 119 -122 32 -17 58 -22 116 -22 85 0
133 20 186 77 54 57 69 95 69 178 0 54 -6 85 -19 110 -26 49 -74 98 -121 122
-43 22 -144 33 -185 19z"/>
<path d="M2690 2125 l0 -85 666 0 666 0 29 -29 29 -29 0 -241 c0 -236 0 -240
-21 -246 -35 -11 -111 -87 -130 -130 -12 -26 -19 -64 -19 -105 0 -151 106
-260 255 -260 146 0 257 111 258 255 0 101 -62 201 -143 235 l-30 12 0 247 c0
282 -6 314 -70 380 -79 81 -21 76 -797 79 l-693 3 0 -86z"/>
<path d="M2690 1780 l0 -90 440 0 c464 0 487 2 504 45 14 38 6 82 -20 106
l-26 24 -449 3 -449 3 0 -91z"/>
<path d="M2690 1431 l0 -91 235 0 236 0 24 -25 25 -24 0 -284 0 -284 -24 -11
c-44 -20 -99 -77 -122 -127 -81 -173 43 -365 235 -365 80 0 134 24 190 85 109
118 81 311 -56 390 l-52 30 -1 298 c0 330 -1 335 -66 407 -74 82 -85 85 -371
88 l-253 4 0 -91z"/>
</g>
</svg>
